<svg xmlns="http://www.w3.org/2000/svg" xmlns:xlink="http://www.w3.org/1999/xlink" id="Layer_1" x="0" y="0" enable-background="new -109 41 60 60" version="1.1" viewBox="-109 41 60 60" xml:space="preserve"><title>USBcable</title><desc>Created with Sketch.</desc><g id="colored"><g id="Tech" transform="translate(-238.000000, -113.000000)"><g id="USBcable" transform="translate(241.000000, 123.000000)"><rect id="Rectangle-523" width="18" height="18" x="-97" y="60" fill="#43CFCF" stroke="#565656" stroke-width="2"/><rect id="Rectangle-523_1_" width="8" height="8" x="-67" y="42" fill="#43CFCF" stroke="#565656" stroke-width="2"/><rect id="Rectangle-524" width="9" height="6" x="-109" y="61" fill="#EAEAEA" stroke="#565656" stroke-width="2"/><rect id="Rectangle-525" width="9" height="6" x="-109" y="71" fill="#EAEAEA" stroke="#565656" stroke-width="2"/><path id="Line" fill="none" stroke="#565656" stroke-linecap="square" stroke-width="2" d="M-104,64h-1"/><path id="Line_1_" fill="none" stroke="#565656" stroke-linecap="square" stroke-width="2" d="M-104,74h-1"/><path id="Oval-533" fill="none" stroke="#565656" stroke-width="2" d="M-63,69c4.4,0,8-3.4,8-7.5s-3.6-7.5-8-7.5"/><path id="Oval-533_1_" fill="none" stroke="#565656" stroke-width="2" d="M-79,46c-2.2,0-4,1.8-4,4s1.8,4,4,4"/><path id="Line_2_" fill="none" stroke="#565656" stroke-linecap="square" stroke-width="2" d="M-78.5,69H-64"/><path id="Line_3_" fill="none" stroke="#565656" stroke-linecap="square" stroke-width="2" d="M-78,54h14"/><path id="Line_4_" fill="none" stroke="#565656" stroke-linecap="square" stroke-width="2" d="M-78,46h10"/><rect id="Rectangle-527" width="4" height="4" x="-59" y="44" fill="#EAEAEA" stroke="#565656" stroke-width="2"/></g></g></g></svg>