<svg xmlns="http://www.w3.org/2000/svg" xmlns:xlink="http://www.w3.org/1999/xlink" id="Layer_1" x="0" y="0" enable-background="new -109 41 60 60" version="1.1" viewBox="-109 41 60 60" xml:space="preserve"><title>3D</title><desc>Created with Sketch.</desc><g id="colored"><g id="Science" transform="translate(-716.000000, 2.000000)"><g id="_x33_D" transform="translate(721.000000, 3.000000)"><g id="Rectangle-44"><path fill="#EB7439" d="M-109,56.2c0-0.1,0.1-0.2,0.2-0.2h35.6c0.1,0,0.2,0.1,0.2,0.2v35.6c0,0.1-0.1,0.2-0.2,0.2h-35.6 c-0.1,0-0.2-0.1-0.2-0.2V56.2z"/><path fill="none" stroke="#565656" stroke-linecap="round" stroke-width="2" d="M-109,56.2c0-0.1,0.1-0.2,0.2-0.2h35.6 c0.1,0,0.2,0.1,0.2,0.2v35.6c0,0.1-0.1,0.2-0.2,0.2h-35.6c-0.1,0-0.2-0.1-0.2-0.2V56.2z"/></g><g id="Rectangle-47"><path fill="none" stroke="#565656" stroke-linecap="round" stroke-width="2" d="M-94,41.2c0-0.1,0.1-0.2,0.2-0.2h35.6 c0.1,0,0.2,0.1,0.2,0.2v35.6c0,0.1-0.1,0.2-0.2,0.2h-35.6c-0.1,0-0.2-0.1-0.2-0.2V41.2z"/></g><path id="Rectangle-45" fill="#A3DB78" stroke="#565656" stroke-linecap="round" stroke-linejoin="round" stroke-width="2" d="M-94,41l-15,15h36l15-15H-94z"/><path id="Rectangle-46" fill="none" stroke="#565656" stroke-linecap="round" stroke-linejoin="round" stroke-width="2" d="M-94,77l-15,15h36l15-15H-94z"/></g></g></g></svg>